# This file uses centimeters as units for non-parametric coordinates.

mtllib Crystal 3.mtl
v -9.814778 0.000000 0.102652
v -8.611980 1.990102 -1.006627
v -9.814778 1.990103 -1.423585
v -10.509242 1.990103 -1.321051
v -11.515791 1.990103 0.000000
v -11.017576 1.990103 1.006627
v -9.814778 1.990103 1.423585
v -8.893723 2.016233 1.006627
v -8.395508 2.016233 0.000000
v -7.451274 10.716741 -0.444265
v -9.014236 10.927914 -1.941544
v -10.321331 12.882211 -1.805294
v -11.567791 12.619978 -1.220474
v -12.015014 11.815584 0.148596
v -10.620158 11.014188 1.913655
v -8.553253 11.368289 1.428796
v -7.641688 11.158295 0.947091
v -9.788909 16.442862 -0.000000
v -8.966756 1.133991 -0.461105
v -9.814778 1.145913 -0.807938
v -10.682093 1.392730 -0.725859
v -10.682093 1.392730 0.725859
v -8.890826 1.077731 0.725859
v -8.531572 1.077731 0.000000
v -8.146527 13.127474 -0.037484
v -10.714904 13.070952 1.088773
v -9.322800 13.067232 1.467033
v -8.189008 12.876143 1.231660
v -7.715884 6.166265 -0.311158
v -9.379789 6.978964 -1.725884
v -11.283420 6.914831 -1.291497
v -11.932311 6.909943 -0.035414
v -11.883221 6.326231 1.364636
v -10.441191 7.789224 1.742059
v -8.206234 8.409017 1.233834
v -12.034411 6.315382 -0.763450
v -11.833004 6.309174 -1.170385
v -8.170918 10.644483 -2.015764
v -9.397714 4.317880 -1.590920
v -8.303898 3.045761 -0.900842
v -9.392303 1.543678 -1.307933
v -9.586163 16.303293 -0.254575
v -9.801222 16.237627 -0.435025
v -10.047504 16.186777 -0.362986
v -9.409990 15.190966 0.666878
v -9.074838 14.874065 1.076450
v -7.984581 13.149797 0.528569
v -7.880692 4.803428 -0.365796
v -7.633095 5.371569 -1.101292
v -8.442385 5.154509 -1.536345
v -8.691279 14.478820 -0.929633
v -8.803122 14.816404 0.047749
v -9.203735 5.834731 1.531719
v -10.427105 6.136378 2.133532
v -11.203049 6.349743 1.774607
v -9.654787 6.019574 1.925953
v -7.759482 8.460815 -0.846379
v -7.504746 8.778535 0.379600
v -7.758468 10.427582 -0.805783
v -8.032566 10.394088 -1.376443
v -10.195333 7.378636 -2.420752
v -11.020593 7.345145 -2.190388
v -10.382068 10.500207 -2.565534
v -9.848426 9.320970 -2.830977
v -9.223480 12.817080 -2.122290
v -8.927210 13.192724 -1.425210
v -8.163909 10.391341 1.794874
v -7.202085 10.162416 1.082707
v -12.396564 11.669168 -1.401097
v -11.232918 11.919365 -2.269866
v -12.699768 10.601584 0.076895
v -12.893703 10.405239 -0.402484
vt 0.793229 0.512538
vt 0.062811 0.053526
vt 0.064294 0.098658
vt 0.083397 0.060536
vt 0.563637 0.053225
vt 0.151602 0.071179
vt 0.117907 0.036234
vt 0.210847 0.144048
vt 0.169357 0.053525
vt 0.184557 0.080929
vt 0.904023 0.487202
vt 0.506107 0.109454
vt 0.234506 0.107720
vt 0.912925 0.504379
vt 0.228725 0.224934
vt 0.438463 0.148178
vt 0.258438 0.125865
vt 0.167038 0.219810
vt 0.286771 0.078519
vt 0.250037 0.154550
vt 0.422756 0.184654
vt 0.359491 0.163995
vt 0.425170 0.389067
vt 0.376307 0.209774
vt 0.812636 0.464179
vt 0.391113 0.224803
vt 0.351455 0.194142
vt 0.403281 0.393227
vt 0.273797 0.161750
vt 0.340811 0.230670
vt 0.336816 0.248854
vt 0.377766 0.308747
vt 0.359310 0.335814
vt 0.314995 0.206507
vt 0.339708 0.288458
vt 0.331203 0.280432
vt 0.928740 0.327825
vt 0.929777 0.368796
vt 0.835666 0.318102
vt 0.833167 0.372787
vt 0.909188 0.306384
vt 0.905349 0.412907
vt 0.819160 0.342207
vt 0.824004 0.266157
vt 0.914595 0.289128
vt 0.841927 0.404274
vt 0.817594 0.356109
vt 0.721057 0.322539
vt 0.945558 0.266157
vt 0.713800 0.380164
vt 0.875091 0.436668
vt 0.834794 0.577085
vt 0.934292 0.551927
vt 0.814586 0.570767
vt 0.700212 0.357142
vt 0.893811 0.470322
vt 0.835984 0.433574
vt 0.931081 0.451212
vt 0.752291 0.437713
vt 0.939562 0.472537
vt 0.591455 0.034405
vt 0.678141 0.378679
vt 0.590616 0.067846
vt 0.770378 0.551441
vt 0.594530 0.086371
vt 0.828540 0.535219
vt 0.330760 0.293269
vt 0.322581 0.290714
vt 0.300572 0.363843
vt 0.956527 0.322478
vt 0.268311 0.236178
vt 0.922544 0.527590
vt 0.410994 0.333350
vt 0.438804 0.199646
vt 0.503063 0.165120
vt 0.366864 0.255506
vt 0.544902 0.117356
vt 0.703780 0.402098
vt 0.613294 0.060044
vt 0.353797 0.361622
vt 0.965004 0.427240
vt 0.423551 0.465144
vt 0.371362 0.401542
vt 0.141355 0.160645
vt 0.955644 0.513631
vt 0.941467 0.577085
vt 0.815821 0.504628
vt 0.320592 0.170565
vt 0.243465 0.066300
vt 0.407998 0.177286
vt 0.452267 0.093180
vt 0.178582 0.024291
vt 0.537046 0.062492
vt 0.059974 0.032187
vt 0.091861 0.023988
vt 0.636163 0.023988
vt 0.279688 0.124128
vt 0.118989 0.265108
vt 0.224776 0.297767
vt 0.255893 0.339147
vt 0.958540 0.378853
vt 0.013881 0.040638
vt 0.047482 0.077098
vt 0.687264 0.305062
vt 0.707051 0.288785
vt 0.649462 0.344262
vn 0.447826 -0.645328 -0.618873
vn -0.032765 -0.661005 -0.749666
vn 0.401849 -0.728736 -0.554491
vn -0.247646 -0.623666 -0.741426
vn -0.189750 -0.619219 -0.761946
vn -0.197554 -0.577617 -0.792042
vn -0.588322 -0.648416 0.483151
vn -0.618385 -0.783119 0.065759
vn -0.765938 -0.642915 0.000000
vn -0.745098 -0.350044 -0.567713
vn -0.778651 -0.221995 -0.586874
vn -0.774682 -0.226864 -0.590255
vn -0.400723 -0.279756 0.872443
vn -0.085173 -0.551008 0.830142
vn -0.259678 -0.326548 0.908809
vn 0.082800 -0.551118 0.830309
vn 0.393020 -0.138339 0.909064
vn 0.404247 -0.261006 0.876619
vn 0.434528 -0.142816 0.889263
vn 0.888764 -0.128853 0.439881
vn 0.888764 -0.128853 0.439881
vn 0.892963 -0.112087 0.435951
vn 0.959776 -0.144284 0.240856
vn 0.557820 -0.597936 -0.575595
vn 0.520254 -0.637082 -0.568738
vn 0.968703 -0.140443 -0.204671
vn 0.953797 -0.224856 -0.199274
vn -0.102507 -0.044780 -0.993724
vn -0.102507 -0.044780 -0.993724
vn -0.102507 -0.044780 -0.993724
vn -0.250777 -0.172271 -0.952593
vn -0.285685 -0.154777 -0.945742
vn -0.439252 -0.030506 -0.897846
vn -0.464987 -0.011154 -0.885247
vn -0.565448 -0.277986 -0.776526
vn -0.610376 -0.209625 -0.763871
vn -0.966324 -0.169419 -0.193687
vn -0.897307 -0.088748 -0.432394
vn -0.917283 -0.056454 0.394214
vn -0.917283 -0.056454 0.394214
vn -0.917283 -0.056454 0.394214
vn -0.421619 0.186459 0.887395
vn -0.535840 0.121235 0.835570
vn -0.584891 0.090586 0.806037
vn 0.822946 -0.194411 0.533820
vn 0.878709 -0.144484 0.454966
vn 0.797590 -0.284386 0.531954
vn 0.917080 -0.073961 -0.391783
vn 0.963274 -0.066678 -0.260109
vn 0.978289 -0.080736 -0.190870
vn 0.418610 0.570591 -0.706535
vn 0.087797 0.416103 -0.905069
vn -0.110803 0.900043 -0.421481
vn -0.296211 0.867026 -0.400655
vn -0.852529 0.420123 0.310952
vn -0.741884 0.320629 0.588901
vn -0.801753 0.399971 0.444089
vn -0.742062 0.332663 0.581962
vn -0.243939 0.358012 0.901288
vn -0.248185 0.357082 0.900498
vn -0.257980 0.354906 0.898603
vn 0.228398 0.175658 0.957590
vn -0.031747 -0.006247 0.999476
vn 0.283369 0.093198 0.954472
vn 0.925232 0.274248 0.262170
vn 0.827851 0.397776 0.395521
vn 0.869026 0.320104 0.377262
vn 0.147796 -0.641398 -0.752838
vn -0.848858 -0.528621 0.000000
vn 0.625907 -0.715733 0.309784
vn 0.625907 -0.715733 0.309784
vn 0.625907 -0.715733 0.309784
vn -0.276796 0.430636 -0.859033
vn 0.148943 0.343475 -0.927276
vn 0.374784 0.272692 -0.886102
vn -0.708088 0.234505 0.666047
vn 0.139209 0.374130 0.916868
vn 0.335362 0.434494 0.835911
vn 0.141231 0.375794 0.915878
vn 0.467678 0.002585 0.883895
vn 0.213843 -0.008607 0.976830
vn 0.625753 -0.073275 -0.776572
vn 0.367787 -0.139377 -0.919406
vn 0.649125 -0.111057 -0.752531
vn 0.396060 -0.111289 -0.911455
vn -0.161618 -0.188284 -0.968725
vn -0.143405 -0.189867 -0.971281
vn -0.882307 -0.182380 -0.433903
vn -0.822693 -0.204191 -0.530549
vn -0.876115 -0.210705 0.433620
vn -0.988702 -0.146805 0.030282
vn -0.942686 -0.165163 0.289937
vn -0.477577 -0.172089 0.861571
vn -0.414138 -0.183337 0.891559
vn 0.519538 -0.074866 0.851162
vn 0.473754 -0.082111 0.876821
vn 0.918405 -0.134271 0.372162
vn 0.970025 -0.218967 -0.105382
vn -0.975786 -0.081149 0.203116
vn -0.724632 0.580052 -0.372086
vn -0.724551 0.580686 -0.371254
vn -0.724582 0.580448 -0.371567
vn -0.724162 0.583665 -0.367320
vn -0.189890 -0.023961 -0.981513
vn -0.189890 -0.023961 -0.981513
vn -0.189890 -0.023961 -0.981513
vn 0.326841 0.065054 -0.942838
vn 0.327533 0.003674 -0.944833
vn 0.386888 -0.161466 -0.907880
vn 0.328596 -0.074320 -0.941542
vn 0.341626 0.078228 -0.936575
vn -0.372553 -0.546811 -0.749801
vn 0.844969 0.480556 0.234719
vn 0.866453 0.476864 0.147854
vn 0.888064 0.456299 -0.055982
vn -0.787385 0.510893 -0.344983
vn -0.409941 0.393182 -0.823017
vn -0.887371 0.460149 0.028914
vn -0.912839 0.403741 -0.060972
vn 0.833031 0.512929 0.207276
vn 0.802020 0.451226 0.391355
vn -0.490020 0.289654 0.822181
vn -0.648917 0.244785 0.720407
vn -0.648917 0.244785 0.720407
vn -0.648917 0.244785 0.720407
vn 0.898048 0.439638 0.015095
vn 0.906013 0.421616 -0.037146
vn 0.794867 0.569306 -0.209947
vn 0.962678 0.258536 0.080065
vn 0.968671 0.242005 0.055766
vn 0.964453 -0.205921 0.165608
vn 0.506828 -0.218058 -0.834012
vn 0.181283 0.702819 -0.687882
vn 0.181283 0.702819 -0.687882
vn 0.181283 0.702819 -0.687882
vn 0.007250 0.273445 -0.961860
vn 0.015602 0.272716 -0.961968
vn 0.093673 -0.047715 0.994459
vn 0.093673 -0.047715 0.994459
vn 0.093673 -0.047715 0.994459
vn 0.368605 -0.113368 0.922647
vn 0.239069 -0.129470 0.962332
vn -0.406289 0.234998 0.883009
vn -0.448545 0.256753 0.856087
vn -0.361678 0.211949 0.907891
vn -0.504327 -0.170572 0.846498
vn 0.692599 0.372000 0.617999
vn 0.692599 0.372000 0.617999
vn 0.692599 0.372000 0.617999
vn 0.284358 0.223251 0.932362
vn 0.284358 0.223251 0.932362
vn 0.284358 0.223251 0.932362
vn -0.502122 0.284220 0.816757
vn 0.887192 -0.088758 -0.452783
vn 0.395705 0.108574 -0.911937
vn 0.655433 -0.183600 -0.732597
vn 0.823382 -0.130878 -0.552190
vn 0.603598 -0.127701 -0.786996
vn 0.858933 0.123013 -0.497093
vn 0.892523 -0.319521 -0.318290
vn 0.756779 0.013100 -0.653539
vn 0.746850 -0.161432 -0.645100
vn 0.886442 -0.241688 -0.394726
vn -0.929111 -0.144015 -0.340605
vn -0.962474 0.023026 -0.270395
vn -0.076398 0.890943 -0.447643
vn -0.076398 0.890943 -0.447643
vn -0.076398 0.890943 -0.447643
vn 0.744535 0.018618 -0.667324
vn 0.717631 0.012866 -0.696305
vn 0.846004 0.042857 -0.531451
vn -0.034696 0.204501 -0.978251
vn -0.087666 0.229296 -0.969401
vn -0.197939 0.278765 -0.939740
vn -0.248122 0.300277 -0.921015
vn 0.906507 0.060427 -0.417843
vn -0.260002 -0.139275 0.955511
vn 0.290585 0.423219 0.858164
vn 0.973543 -0.111614 -0.199392
vn 0.976411 -0.106724 -0.187702
vn 0.914974 0.403503 -0.002835
vn 0.644216 -0.308616 0.699816
vn 0.540186 -0.239832 0.806647
vn 0.499344 0.329538 0.801287
vn 0.554146 0.413582 0.722407
vn -0.476600 0.653303 -0.588258
vn -0.787853 0.613472 -0.054226
vn 0.166756 0.295931 -0.940541
vn 0.166756 0.295931 -0.940541
vn 0.166756 0.295931 -0.940541
vn -0.591397 -0.133889 -0.795188
vn -0.760431 -0.271131 -0.590112
vn -0.798824 -0.076081 0.596735
vn -0.423099 0.186276 0.886729
vn -0.864452 0.474681 0.165533
vn -0.869081 0.468130 0.159853
vn 0.660956 0.306222 -0.685103
vn 0.947158 0.245591 -0.206342
vn 0.947158 0.245591 -0.206342
vn 0.947158 0.245591 -0.206342
vn 0.947158 0.245591 -0.206342
vn 0.978918 0.121311 -0.164330
vn 0.978917 0.121311 -0.164330
vn 0.978917 0.121311 -0.164330
vn 0.867636 0.247429 -0.431262
vn 0.596646 0.297815 -0.745198
vn 0.181380 -0.087539 0.979509
vn 0.207698 -0.062291 0.976208
vn -0.022400 -0.271813 0.962089
vn 0.275541 0.004467 0.961279
s 1
usemtl StingrayPBS1SG
f 19/61/1 20/79/2 41/63/3
f 21/55/4 4/50/5 20/62/2
f 20/62/2 4/50/5 3/78/6
s 3
f 22/104/7 5/48/8 21/55/9
s 4
f 21/55/10 5/48/11 4/50/12
s 3
f 5/48/8 22/104/7 6/105/13
f 1/64/14 7/66/15 22/54/7
f 22/54/7 7/66/15 6/52/13
f 1/64/14 23/1/16 7/66/15
s 6
f 7/66/17 23/1/18 8/87/19
s 7
f 23/103/20 24/2/21 8/3/22
f 8/3/22 24/2/21 9/4/23
s 1
f 19/94/1 2/95/24 24/2/25
s 7
f 24/2/26 2/95/27 9/4/23
s off
f 38/28/28 30/82/29 11/83/30
s 9
f 61/57/31 62/46/32 64/51/33
f 64/51/33 62/46/32 63/42/34
s 10
f 69/37/35 70/38/36 32/39/37
f 32/39/37 70/38/36 31/40/38
s off
f 33/44/39 71/45/40 72/41/41
s 11
f 33/98/42 34/18/43 14/99/44
s 7
f 35/8/45 29/10/46 58/13/47
s 13
f 29/10/48 57/89/49 58/13/50
s 14
f 42/35/51 43/67/52 18/36/53
f 43/67/52 44/68/54 18/36/53
s 15
f 44/68/55 14/99/56 18/36/57
f 14/99/56 26/71/58 18/36/57
s 16
f 26/71/59 27/34/60 18/36/61
s 17
f 46/30/62 27/34/63 28/27/64
s 18
f 47/24/65 46/30/66 28/27/67
s 1
f 1/96/68 20/79/2 19/61/1
f 1/106/68 21/55/4 20/62/2
s 3
f 21/55/9 1/106/69 22/104/7
s off
f 1/102/70 24/2/71 23/103/72
s 1
f 1/102/68 19/94/1 24/2/25
s 14
f 12/69/73 51/33/74 66/80/75
s 15
f 15/15/76 26/71/58 14/99/56
s 20
f 15/15/77 67/20/78 26/71/79
s 17
f 17/22/80 28/27/64 16/88/81
f 16/88/81 28/27/64 27/34/63
s 21
f 30/25/82 39/59/83 61/57/84
f 61/57/84 39/59/83 3/78/85
s 9
f 62/46/32 61/57/31 4/50/86
f 4/50/86 61/57/31 3/78/87
s 4
f 36/43/88 37/47/89 5/48/11
f 5/48/11 37/47/89 4/50/12
s 10
f 6/105/90 33/44/91 5/48/92
f 5/48/92 33/44/91 32/39/37
s 3
f 55/53/93 6/52/13 54/72/94
f 54/72/94 6/52/13 7/66/15
s 6
f 53/84/95 8/3/19 35/8/96
s 7
f 8/3/22 9/4/23 48/6/97
f 2/95/27 40/7/98 9/4/23
f 9/4/23 40/7/98 48/6/97
s 10
f 5/48/92 32/39/37 36/43/99
s 25
f 32/39/100 31/40/101 36/43/102
f 36/43/102 31/40/101 37/47/103
s off
f 31/40/104 4/50/105 37/47/106
s 21
f 41/63/107 3/65/85 2/5/108
f 2/5/108 3/65/85 40/93/109
f 50/12/110 39/77/83 30/75/111
s 1
f 41/63/112 20/79/2 3/65/6
f 19/61/1 41/63/3 2/5/24
s 21
f 40/93/109 3/65/85 39/77/83
s 28
f 42/35/113 52/32/114 51/33/115
s 14
f 13/100/116 44/68/117 12/69/73
f 12/69/73 44/68/117 43/67/52
f 13/100/116 14/99/118 44/68/119
s 28
f 52/76/114 42/35/113 45/31/120
f 45/31/120 42/35/113 18/36/121
s 16
f 27/34/60 45/31/122 18/36/61
s off
f 45/31/123 27/34/124 46/30/125
s 28
f 45/31/120 47/24/126 25/26/127 52/76/114
f 47/24/126 45/31/120 46/30/128
s 18
f 28/27/67 17/22/129 47/24/65
f 47/24/65 17/22/129 10/90/130
s 7
f 8/3/22 48/6/97 35/8/45
f 35/8/45 48/6/97 29/10/46
f 48/6/97 49/9/131 29/10/46
f 48/6/97 40/7/98 49/9/131
s 21
f 50/92/110 49/9/132 40/7/109
f 39/77/83 50/12/110 40/93/109
s off
f 29/10/133 49/9/134 50/92/135
s 14
f 51/33/74 38/28/136 11/83/137
f 42/35/51 51/33/74 43/67/52
f 43/67/52 51/33/74 12/69/73
s off
f 34/18/138 53/84/139 15/15/140
s 6
f 8/87/19 56/14/141 7/66/17
f 7/66/17 56/14/141 54/72/142
s 31
f 34/85/143 55/53/144 54/72/145
s 3
f 33/86/146 6/52/13 55/53/93
s 6
f 8/87/19 53/11/95 56/14/141
s off
f 53/11/147 34/85/148 56/14/149
f 56/14/150 34/85/151 54/72/152
s 31
f 34/85/143 33/86/153 55/53/144
s 13
f 29/91/48 50/12/154 57/16/49
s 21
f 57/16/155 50/12/110 30/75/111
s 32
f 30/75/156 60/74/157 57/16/158
f 57/16/158 60/74/157 59/21/159
f 30/82/156 38/28/160 60/23/157
f 10/90/161 57/16/158 59/21/159
s 21
f 30/25/82 61/57/84 11/56/162
f 11/56/162 61/57/84 64/51/163
s 10
f 4/50/164 31/40/38 62/46/165
s off
f 12/81/166 66/60/167 65/58/168
s 34
f 11/56/169 64/51/170 65/58/171
s 35
f 64/51/172 63/42/173 65/58/174
f 63/42/173 12/81/175 65/58/174
s 14
f 66/80/75 51/33/74 11/83/137
s 34
f 65/58/171 66/60/176 11/56/169
s 17
f 26/71/177 16/88/81 27/34/63
s 20
f 16/29/178 26/71/79 67/20/78
s 13
f 68/17/179 58/13/50 10/19/180
f 10/19/180 58/13/50 57/89/49
s 18
f 10/19/130 17/97/129 68/17/181
s 7
f 58/13/47 68/17/182 35/8/45
f 35/8/45 68/17/182 67/20/183
s 20
f 17/97/184 16/29/178 68/17/185
f 68/17/185 16/29/178 67/20/78
s 14
f 12/101/73 70/38/186 13/70/116
f 13/70/116 70/38/186 69/37/187
f 14/49/118 13/70/116 69/37/187
s off
f 12/101/188 63/42/189 70/38/190
s 10
f 62/46/165 31/40/38 63/42/191
f 63/42/191 31/40/38 70/38/36
f 33/44/91 72/41/192 32/39/37
s 11
f 14/99/44 34/18/43 15/15/193
f 33/44/42 14/49/44 71/45/194
s 14
f 14/49/118 69/37/187 71/45/195
f 71/45/195 69/37/187 72/41/196
s 10
f 69/37/35 32/39/37 72/41/192
s 28
f 25/26/127 47/24/126 10/90/197
s off
f 25/73/198 38/28/199 51/33/200 52/32/201
f 38/28/202 25/73/203 60/23/204
s 32
f 60/74/157 25/26/205 59/21/159
s 28
f 59/21/206 25/26/127 10/90/197
s 36
f 15/15/207 35/8/208 67/20/209
f 53/84/210 35/8/208 15/15/207
